<?xml version="1.0" standalone="no"?>
<!DOCTYPE svg PUBLIC "-//W3C//DTD SVG 20010904//EN"
 "http://www.w3.org/TR/2001/REC-SVG-20010904/DTD/svg10.dtd">
<svg version="1.0" xmlns="http://www.w3.org/2000/svg"
 width="196.000000pt" height="196.000000pt" viewBox="0 0 196.000000 196.000000"
 preserveAspectRatio="xMidYMid meet">
<metadata>
Created by potrace 1.14, written by Peter Selinger 2001-2017
</metadata>
<g transform="translate(0.000000,196.000000) scale(0.100000,-0.100000)"
fill="#000000" stroke="none">
<path d="M0 980 l0 -980 980 0 980 0 0 980 0 980 -980 0 -980 0 0 -980z m1160
760 c208 -50 391 -188 500 -375 16 -28 43 -93 61 -145 30 -88 33 -105 33 -230
1 -156 -13 -219 -73 -345 -78 -164 -194 -281 -356 -361 -133 -65 -195 -79
-355 -78 -125 0 -142 3 -230 33 -52 18 -117 45 -145 61 -345 200 -487 619
-334 985 94 227 309 406 552 459 96 21 247 19 347 -4z"/>
<path d="M858 1740 c-308 -56 -541 -270 -624 -571 -25 -89 -25 -289 0 -378 85
-311 338 -531 655 -572 370 -47 729 194 830 558 113 410 -132 836 -544 947
-71 19 -250 29 -317 16z m270 -56 c44 -8 118 -35 172 -61 82 -39 107 -58 185
-137 63 -63 102 -112 127 -161 100 -193 113 -408 38 -607 -56 -149 -196 -304
-342 -377 -118 -59 -191 -75 -328 -75 -137 0 -208 16 -330 76 -68 33 -102 59
-176 132 -79 79 -98 104 -137 186 -25 52 -52 127 -61 167 -56 254 38 534 236
700 171 144 396 202 616 157z"/>
<path d="M649 1483 c-26 -31 -16 -147 23 -263 46 -134 133 -320 150 -320 8 0
24 7 37 17 22 15 25 15 36 0 17 -24 20 -22 48 27 l25 45 -147 255 c-80 140
-149 255 -152 256 -4 0 -13 -7 -20 -17z"/>
<path d="M1129 1412 c-70 -118 -119 -211 -119 -226 0 -6 9 -29 20 -50 l19 -38
-169 -294 c-94 -161 -170 -302 -170 -312 0 -26 24 -44 51 -40 18 2 58 64 193
300 170 296 171 297 204 298 60 0 86 26 165 164 84 146 89 158 66 163 -12 3
-36 -30 -89 -121 -64 -113 -100 -153 -100 -112 0 8 32 69 71 136 52 89 68 125
60 133 -15 15 -20 9 -96 -123 -77 -133 -81 -138 -96 -123 -9 9 8 45 65 144 56
98 73 135 64 141 -7 4 -15 8 -18 8 -3 -1 -38 -59 -79 -130 -65 -116 -101 -157
-101 -116 0 8 32 69 70 136 39 67 70 125 70 130 0 4 -7 10 -15 14 -10 4 -30
-20 -66 -82z"/>
<path d="M1012 821 c-12 -21 -22 -44 -22 -50 0 -14 154 -277 178 -303 22 -26
60 -23 73 6 10 21 -1 45 -93 204 -56 100 -106 181 -109 182 -3 0 -15 -17 -27
-39z"/>
</g>
</svg>
